<?xml version="1.0" standalone="no"?><!DOCTYPE svg PUBLIC "-//W3C//DTD SVG 1.1//EN" "http://www.w3.org/Graphics/SVG/1.1/DTD/svg11.dtd"><svg t="1586400417032" class="icon" viewBox="0 0 1396 1024" version="1.1" xmlns="http://www.w3.org/2000/svg" p-id="17045" xmlns:xlink="http://www.w3.org/1999/xlink" width="174.5" height="128"><defs><style type="text/css"></style></defs><path d="M273.408 0c-40.680727 0-69.818182 29.975273-69.818182 71.866182v880.267636c0 41.890909 29.137455 71.866182 69.818182 71.866182h855.319273c40.680727 0 69.818182-29.975273 69.818182-71.866182V77.824c0-41.890909-34.909091-77.824-75.68291-77.824H273.408z m849.454545 952.133818L849.454545 652.753455 715.589818 772.468364 512 574.836364 308.317091 772.468364 279.272727 808.401455V77.824h855.226182v874.309818h-11.636364zM901.771636 514.978909c75.682909 0 133.864727-59.857455 133.864728-137.774545 0-77.824-58.181818-137.681455-133.864728-137.681455-75.589818 0-133.771636 59.857455-133.771636 137.774546 0 71.866182 58.181818 137.774545 133.771636 137.774545z m-744.727272-315.764364V101.841455H69.818182c-40.680727 0-69.818182 29.882182-69.818182 71.77309v676.77091c0 41.890909 29.137455 71.773091 69.818182 71.77309h87.319273V792.203636h-56.878546V199.214545h56.785455zM1233.454545 791.738182v130.420363h93.09091c40.680727 0 69.818182-29.882182 69.818181-71.77309v-676.77091c0-41.890909-29.137455-71.773091-69.818181-71.77309h-87.319273v97.838545h57.437091v592.058182h-63.208728z" p-id="17046"></path></svg>