<?xml version="1.0" standalone="no"?><!DOCTYPE svg PUBLIC "-//W3C//DTD SVG 1.1//EN" "http://www.w3.org/Graphics/SVG/1.1/DTD/svg11.dtd"><svg t="1586400067151" class="icon" viewBox="0 0 1024 1024" version="1.1" xmlns="http://www.w3.org/2000/svg" p-id="9158" xmlns:xlink="http://www.w3.org/1999/xlink" width="128" height="128"><defs><style type="text/css"></style></defs><path d="M912.440889 522.808889a218.339556 218.339556 0 0 1-131.356445-120.604445 219.591111 219.591111 0 0 1-8.817777-155.534222c2.616889-8.476444 5.688889-16.839111 9.386666-25.144889 0.455111-1.080889 5.575111-11.719111 15.36-32.028444a50.460444 50.460444 0 0 0 1.763556 46.819555c2.048 3.470222 4.551111 6.769778 7.395555 9.671112l-33.564444-33.450667a49.664 49.664 0 0 0 56.433778 9.386667l-33.564445 15.928888a218.908444 218.908444 0 0 1-177.493333 0.853334 220.501333 220.501333 0 0 1-122.88-131.811556l-2.673778-9.102222-7.054222-27.989333 110.364444-27.704889-106.951111 38.798222A49.891556 49.891556 0 0 0 535.552 113.777778h-47.274667a49.550222 49.550222 0 0 0 46.819556-32.995556l-10.808889 29.923556a221.127111 221.127111 0 0 1-13.539556 31.402666 218.112 218.112 0 0 1-107.52 99.555556 220.728889 220.728889 0 0 1-155.932444 8.647111 238.478222 238.478222 0 0 1-25.201778-9.443555l-31.459555-14.961778a49.834667 49.834667 0 0 0 46.364444-1.991111 47.786667 47.786667 0 0 0 9.329778-7.168l-33.564445 33.507555a49.834667 49.834667 0 0 0 12.515556-21.390222 50.744889 50.744889 0 0 0-3.072-35.84l16.042667 33.393778a217.827556 217.827556 0 0 1 0.853333 177.664A220.899556 220.899556 0 0 1 143.018667 510.862222a211.114667 211.114667 0 0 1-34.247111 15.132445l-31.971556 11.491555-38.4-107.121778L83.626667 534.755556a47.957333 47.957333 0 0 0 24.632889-24.177778c1.820444-3.982222 3.242667-8.248889 4.152888-12.856889 0.739556-3.584 1.137778-7.281778 1.308445-11.207111v46.705778a50.574222 50.574222 0 0 0-5.461333-22.641778 48.526222 48.526222 0 0 0-26.168889-23.722667l29.240889 10.467556c12.515556 4.380444 22.300444 8.647111 31.630222 13.539555a217.941333 217.941333 0 0 1 99.669333 107.064889 219.591111 219.591111 0 0 1 8.874667 155.591111 237.226667 237.226667 0 0 1-9.386667 25.144889c-0.455111 1.080889-5.575111 11.719111-15.36 32.028445a50.517333 50.517333 0 0 0-1.763555-46.819556 47.843556 47.843556 0 0 0-7.395556-9.671111l33.564444 33.450667a49.664 49.664 0 0 0-56.433777-9.386667l33.564444-15.928889a219.022222 219.022222 0 0 1 177.436445-0.853333 220.728889 220.728889 0 0 1 110.933333 102.968889c4.152889 8.305778 7.850667 16.896 10.922667 25.770666l11.889777 32.881778A49.891556 49.891556 0 0 0 492.657778 910.222222h47.274666a49.720889 49.720889 0 0 0-46.307555 31.857778l10.581333-28.785778 1.137778-3.072A218.396444 218.396444 0 0 1 625.777778 782.848a219.591111 219.591111 0 0 1 155.306666-8.305778c8.305778 2.616889 16.497778 5.688889 24.689778 9.329778l31.402667 14.677333a49.891556 49.891556 0 0 0-45.966222 2.161778 47.729778 47.729778 0 0 0-9.272889 7.168l33.564444-33.507555a49.834667 49.834667 0 0 0-12.515555 21.390222 50.744889 50.744889 0 0 0 3.072 35.896889l-16.213334-33.792a218.282667 218.282667 0 0 1-0.682666-176.696889 220.842667 220.842667 0 0 1 120.832-118.442667c4.664889-1.763556 7.054222-2.616889 9.443555-3.413333l31.971556-11.491556 38.456889 107.064889-53.020445-100.693333a49.834667 49.834667 0 0 0-26.680889 44.316444l-0.170666-4.835555V486.968889a50.176 50.176 0 0 0 32.995555 46.876444l-30.606222-10.979555z m68.494222-96.256c25.6 8.931556 42.780444 32.938667 42.894222 59.960889v47.160889c1.934222 25.315556-11.377778 49.379556-33.905777 61.212444l-32.028445 11.491556a106.723556 106.723556 0 0 0-64 59.278222 106.154667 106.154667 0 0 0 0 86.072889l14.791111 30.606222c11.605333 24.462222 6.485333 53.646222-12.856889 72.704l-33.905777 33.792c-19.114667 19.285333-48.355556 24.348444-72.931556 12.743111l-31.345778-14.677333a105.927111 105.927111 0 0 0-85.788444 0 107.292444 107.292444 0 0 0-60.131556 63.772444l-11.491555 31.288889c-9.159111 25.201778-33.223111 42.040889-60.188445 42.040889h-47.331555c-26.965333 0-50.972444-16.839111-60.131556-42.097778L420.977778 950.044444a106.609778 106.609778 0 0 0-59.505778-63.715555 107.235556 107.235556 0 0 0-87.04 0l-30.72 14.620444a64.170667 64.170667 0 0 1-72.931556-12.743111l-33.905777-33.792a63.601778 63.601778 0 0 1-12.8-72.704l14.734222-30.606222a106.097778 106.097778 0 0 0 0-86.698667 106.723556 106.723556 0 0 0-64-59.335111l-31.971556-11.434666A63.772444 63.772444 0 0 1 0 533.617778v-47.217778a63.715556 63.715556 0 0 1 38.4-56.092444l31.971556-11.434667A106.666667 106.666667 0 0 0 134.371556 359.537778a106.097778 106.097778 0 0 0 0-86.698667l-14.734223-30.606222a63.601778 63.601778 0 0 1 12.8-72.704l33.905778-33.792c19.171556-19.228444 48.355556-24.348444 72.988445-12.743111l30.72 14.677333a107.235556 107.235556 0 0 0 87.04 0 106.609778 106.609778 0 0 0 59.448888-63.715555L428.088889 42.097778C437.191111 16.839111 461.312 0 488.220444 0h47.331556c26.965333 0 51.029333 16.839111 60.188444 42.097778l7.054223 28.046222c9.784889 28.728889 31.459556 51.939556 59.505777 63.715556a107.178667 107.178667 0 0 0 87.04 0l30.72-14.620445a64.170667 64.170667 0 0 1 72.874667 12.743111l33.962667 33.792c19.342222 19.057778 24.462222 48.241778 12.8 72.704l-14.791111 30.606222a106.154667 106.154667 0 0 0 0 86.698667c11.946667 27.932444 35.214222 49.493333 64.056889 59.278222l31.971555 11.491556z m-301.340444 118.897778a170.666667 170.666667 0 1 1-334.677334-66.901334 170.666667 170.666667 0 0 1 334.677334 66.901334zM568.035556 523.377778a56.888889 56.888889 0 1 0-111.559112-22.300445 56.888889 56.888889 0 0 0 111.502223 22.300445z" p-id="9159"></path></svg>