<?xml version="1.0" standalone="no"?><!DOCTYPE svg PUBLIC "-//W3C//DTD SVG 1.1//EN" "http://www.w3.org/Graphics/SVG/1.1/DTD/svg11.dtd"><svg t="1586400465758" class="icon" viewBox="0 0 1170 1024" version="1.1" xmlns="http://www.w3.org/2000/svg" p-id="19126" xmlns:xlink="http://www.w3.org/1999/xlink" width="146.25" height="128"><defs><style type="text/css"></style></defs><path d="M1023.68562 73.439273a69.163699 69.163699 0 0 1 73.124892 73.124893v511.811371a69.163699 69.163699 0 0 1-73.124892 73.124893H146.249785a69.163699 69.163699 0 0 1-73.124892-73.124893v-511.811371a69.163699 69.163699 0 0 1 73.124892-73.124893h877.435835m0-73.124893H146.249785A146.689918 146.689918 0 0 0 0 146.564166v511.811371a146.689918 146.689918 0 0 0 146.249785 146.249785h877.435835a146.689918 146.689918 0 0 0 146.249785-146.249785v-511.811371A146.689918 146.689918 0 0 0 1023.68562 0.31438z m-292.499571 950.560727v-73.124892H438.686479v73.124892H219.374678v73.124893h731.186049v-73.124893z" p-id="19127"></path><path d="M219.374678 439.063736h146.249785v219.374677H219.374678z m292.49957-219.374678h146.249785v438.686479H511.874248z m292.49957 146.249785h146.249785v292.49957h-146.501289z" p-id="19128"></path></svg>