<?xml version="1.0" standalone="no"?><!DOCTYPE svg PUBLIC "-//W3C//DTD SVG 1.1//EN" "http://www.w3.org/Graphics/SVG/1.1/DTD/svg11.dtd"><svg t="1586400141662" class="icon" viewBox="0 0 1024 1024" version="1.1" xmlns="http://www.w3.org/2000/svg" p-id="10463" xmlns:xlink="http://www.w3.org/1999/xlink" width="128" height="128"><defs><style type="text/css"></style></defs><path d="M534.912 723.008a270.976 270.976 0 1 1 195.328 0h89.536c68.992 0 90.432 82.688 90.432 82.688l41.856 138.816h31.616c21.632 0 39.36 17.728 39.36 39.36a39.488 39.488 0 0 1-39.36 39.36H287.104a39.488 39.488 0 0 1-39.36-39.36c0-21.632 17.728-39.36 39.36-39.36h32.576l50.176-138.816s19.2-82.688 88.256-82.688h76.8zM78.72 944.512V78.72h616.768v23.36a39.424 39.424 0 0 0 78.72 0v-27.52A74.624 74.624 0 0 0 699.776 0H74.56C33.536 0 0 33.536 0 74.56v874.176c0 41.024 33.536 74.56 74.56 74.56h61.248c21.632 0 39.36-17.728 39.36-39.36s-17.728-39.36-39.36-39.36H78.72v-0.064z m623.488-522.24c7.296 9.344 12.928 19.648 16.64 30.272a103.424 103.424 0 0 1 5.312 42.496 160.512 160.512 0 0 1-0.896 8.192 33.536 33.536 0 0 0 66.24 10.56c0.832-5.12 1.408-9.664 1.728-13.44a173.504 173.504 0 0 0-36.16-119.552 33.536 33.536 0 0 0-47.168-5.632 33.408 33.408 0 0 0-5.696 47.104z m167.744 522.24l-35.008-116.096a41.152 41.152 0 0 1-0.64-2.24c-1.792-6.08-8.832-20.928-14.272-24.384h-89.728a78.08 78.08 0 0 1-77.44-64.256 78.144 78.144 0 0 1 49.024-87.872 192.256 192.256 0 1 0-138.496 0c35.712 13.824 55.936 50.176 49.024 87.872a78.08 78.08 0 0 1-77.44 64.256H458.432c-4.8 3.968-10.496 16.896-12.032 22.528a84.416 84.416 0 0 1-2.432 8.192l-40.576 112.064h466.56z" fill="" p-id="10464"></path></svg>