<?xml version="1.0" standalone="no"?><!DOCTYPE svg PUBLIC "-//W3C//DTD SVG 1.1//EN" "http://www.w3.org/Graphics/SVG/1.1/DTD/svg11.dtd"><svg t="1586400268921" class="icon" viewBox="0 0 1024 1024" version="1.1" xmlns="http://www.w3.org/2000/svg" p-id="13336" xmlns:xlink="http://www.w3.org/1999/xlink" width="128" height="128"><defs><style type="text/css"></style></defs><path d="M1023.808 803.264c-0.384-2.688 0-5.76 0-8.512a83.776 83.776 0 0 0-18.176-53.312c-19.84-26.048-46.528-45.44-74.88-62.592-53.824-32.64-112.768-56.384-174.4-75.072-24.448-7.36-55.424-22.528-55.808-45.12-0.384-20.224 2.688-38.464 15.872-54.848 32.96-40.832 53.888-88.64 67.072-141.504 11.648-46.72 14.72-94.08 5.76-141.568-8.896-48.256-29.44-89.088-65.856-118.208C690.432 76.032 654.784 64 617.152 64c-15.488 0-31.36 1.92-47.68 6.208-28.672 7.04-53.12 20.224-72.896 38.528 17.088 7.744 33.728 17.472 49.28 30.336 42.24 33.792 69.376 82.048 80.64 143.104 9.28 51.328 7.36 104.96-6.208 159.424-15.552 62.592-40.32 113.92-75.2 157.504-3.52 4.672-6.208 10.112-6.592 21.76 3.84 2.752 11.968 7.808 26.368 12.096 72.064 22.144 132.16 48.192 183.68 79.36 26.816 16.32 60.928 39.232 86.528 73.088 18.56 24.512 27.52 51.328 26.688 79.68v4.288c0.832 7.424 0.448 14.784-0.768 22.208h103.936c0-0.832 62.72-45.888 58.88-88.32z m-203.52 60.288a83.776 83.776 0 0 0-18.176-53.248c-19.84-26.112-46.528-45.504-74.88-62.656-53.824-32.64-112.768-56.32-174.4-75.008-24.448-7.424-55.424-22.592-55.808-45.12-0.384-20.224 2.688-38.528 15.872-54.848 32.96-40.832 53.888-88.704 67.072-141.568 11.648-46.72 14.72-94.08 5.76-141.568-8.896-48.192-29.44-89.024-65.856-118.208-32.96-26.432-68.608-38.464-106.24-38.464-15.488 0-31.36 1.92-47.68 6.208-62.784 15.552-104.32 58.304-124.8 126.4-14.72 48.64-14.336 98.752-4.288 148.16 12.8 62.976 37.632 99.2 77.184 147.008 1.536 1.92 3.456 3.84 4.224 5.76 13.952 35.84-16.256 91.84-53.12 104.64-28.672 10.112-56.96 20.608-84.48 32.64-44.16 19.072-86.848 40.512-123.648 70.016-23.296 18.304-45.76 38.144-53.504 66.56-3.84 14.336-3.52 30.272-3.52 45.056a61.888 61.888 0 0 0 23.296 50.176c11.2 9.344 37.568 24.512 37.568 24.512l129.472-0.384h571.456s62.72-45.12 58.88-87.104c-0.768-3.136-0.384-6.208-0.384-8.96z" p-id="13337"></path></svg>