<?xml version="1.0" standalone="no"?><!DOCTYPE svg PUBLIC "-//W3C//DTD SVG 1.1//EN" "http://www.w3.org/Graphics/SVG/1.1/DTD/svg11.dtd"><svg t="1586399664428" class="icon" viewBox="0 0 1133 1024" version="1.1" xmlns="http://www.w3.org/2000/svg" p-id="2470" xmlns:xlink="http://www.w3.org/1999/xlink" width="141.625" height="128"><defs><style type="text/css"></style></defs><path d="M126.359941 487.024079c-57.584435 37.25635-15.228356 98.594753 30.244224 150.441993l325.178527 358.82257a86.128749 86.128749 0 0 0 121.189383 0l515.143416-484.474215c28.190166-4.108115 8.216229-507.210505 8.216229-507.210505S679.184685-12.678492 646.319768 19.903107L126.359941 487.024079m774.875426-252.578223c-34.918975-34.706486-34.918975-90.94516 0-125.651646s91.582626-34.706486 126.501601 0 34.918975 90.94516 0 125.651646a89.953546 89.953546 0 0 1-126.501601 0M48.73074 439.214124c-60.275959 55.813696-68.775506 106.527664-1.841569 200.872642l297.05919 356.201876c27.411041 27.198552 68.704677 36.123077 101.215446 18.769834 7.153786-3.824796-371.005254-414.919584-371.005254-414.919584s-57.017799-91.015989 25.99445-142.7924L587.247912 4.178944s-66.083983-3.541478-96.186548 21.036381L48.73074 439.214124m0 0z" p-id="2471"></path></svg>