<?xml version="1.0" standalone="no"?><!DOCTYPE svg PUBLIC "-//W3C//DTD SVG 1.1//EN" "http://www.w3.org/Graphics/SVG/1.1/DTD/svg11.dtd"><svg t="1586400310355" class="icon" viewBox="0 0 1077 1024" version="1.1" xmlns="http://www.w3.org/2000/svg" p-id="14098" xmlns:xlink="http://www.w3.org/1999/xlink" width="134.625" height="128"><defs><style type="text/css"></style></defs><path d="M978.081 76.935H556.754V31.399c0-8.256-3.253-16.262-9.007-22.142C541.867 3.377 533.986 0 525.729 0h-0.125c-16.763 0.375-30.148 14.01-30.148 30.649v46.16H74.128C35.723 76.81 4.7 107.96 4.7 146.24v572.57c0 18.39 7.256 36.153 20.39 49.164 13.011 13.01 30.65 20.39 49.164 20.39h421.203v35.028L305.058 967.878a30.94 30.94 0 0 0-13.386 28.647c1.251 11.26 8.507 21.017 19.14 25.27 10.508 4.253 22.518 2.252 31.275-5.129l153.369-116.34s10.008-7.256 18.64-13.26c7.13-5.005 16.637-5.005 23.893 0l18.89 13.26 153.37 116.215c6.504 5.004 14.635 7.13 22.642 6.005 8.006-1.126 15.387-5.38 20.265-11.885 10.258-13.51 7.631-32.775-5.88-43.033L556.755 823.516v-34.902h421.202c18.39 0 36.154-7.256 49.164-20.266 13.01-13.01 20.39-30.649 20.39-49.163V146.364c0-38.28-31.024-69.43-69.429-69.43z m-90.445 292.603L646.7 564.439c-10.509 8.507-25.395 9.132-36.529 1.501L374.987 406.441l-170.883 153.62c-7.88 8.506-20.015 11.759-31.149 8.506-11.134-3.252-19.515-12.51-21.517-24.018-2.126-11.384 2.502-23.018 11.76-30.024l188.771-169.757c10.508-9.382 26.02-10.508 37.78-2.627l236.183 160.25 223.174-180.516c6.505-5.754 15.012-8.506 23.644-7.63a30.68 30.68 0 0 1 21.641 12.384c10.008 13.636 7.006 32.9-6.755 42.909z m0 0" p-id="14099"></path></svg>